<svg xmlns="http://www.w3.org/2000/svg" xmlns:xlink="http://www.w3.org/1999/xlink" width="500" zoomAndPan="magnify" viewBox="0 0 375 374.999991" height="500" preserveAspectRatio="xMidYMid meet" version="1.0"><defs><clipPath id="09eb4cde17"><path d="M 177 223 L 184 223 L 184 262.5 L 177 262.5 Z M 177 223 " clip-rule="nonzero"/></clipPath><clipPath id="e36d9ef7dc"><path d="M 114.8125 193 L 153 193 L 153 201 L 114.8125 201 Z M 114.8125 193 " clip-rule="nonzero"/></clipPath><clipPath id="98033e5e15"><path d="M 179 112.5 L 185 112.5 L 185 154 L 179 154 Z M 179 112.5 " clip-rule="nonzero"/></clipPath><clipPath id="9f5918e9a1"><path d="M 186 112.5 L 188 112.5 L 188 154 L 186 154 Z M 186 112.5 " clip-rule="nonzero"/></clipPath><clipPath id="26ba117656"><path d="M 221 167 L 260.3125 167 L 260.3125 180 L 221 180 Z M 221 167 " clip-rule="nonzero"/></clipPath><clipPath id="f66b777e42"><path d="M 191 223 L 198 223 L 198 262.5 L 191 262.5 Z M 191 223 " clip-rule="nonzero"/></clipPath><clipPath id="dee2ed0893"><path d="M 188 224 L 192 224 L 192 262.5 L 188 262.5 Z M 188 224 " clip-rule="nonzero"/></clipPath><clipPath id="4629ba0405"><path d="M 183 224 L 187 224 L 187 262.5 L 183 262.5 Z M 183 224 " clip-rule="nonzero"/></clipPath><clipPath id="08b13776c8"><path d="M 155.5 156.898438 L 219.25 156.898438 L 219.25 220.648438 L 155.5 220.648438 Z M 155.5 156.898438 " clip-rule="nonzero"/></clipPath><clipPath id="6fbd7a46f1"><path d="M 163.378906 164.777344 L 211.378906 164.777344 L 211.378906 212.777344 L 163.378906 212.777344 Z M 163.378906 164.777344 " clip-rule="nonzero"/></clipPath></defs><rect x="-37.5" width="450" fill="#ffffff" y="-37.499999" height="449.999989" fill-opacity="1"/><rect x="-37.5" width="450" fill="#ffffff" y="-37.499999" height="449.999989" fill-opacity="1"/><g clip-path="url(#09eb4cde17)"><path fill="#ff751f" d="M 177.289062 261.957031 L 182.117188 223.96875 L 183.339844 224.125 L 178.511719 262.113281 Z M 177.289062 261.957031 " fill-opacity="1" fill-rule="nonzero"/></g><path fill="#ff751f" d="M 171.046875 260.75 L 179.121094 223.402344 L 180.328125 223.664062 L 172.25 261.007812 Z M 171.046875 260.75 " fill-opacity="1" fill-rule="nonzero"/><path fill="#ff751f" d="M 165.058594 258.570312 L 176.183594 222.578125 L 177.363281 222.945312 L 166.238281 258.933594 Z M 165.058594 258.570312 " fill-opacity="1" fill-rule="nonzero"/><path fill="#ff751f" d="M 160.5625 256.148438 L 160.148438 256.148438 L 160.148438 255.53125 L 159.578125 255.300781 L 173.324219 221.5 L 174.46875 221.964844 Z M 160.5625 256.148438 " fill-opacity="1" fill-rule="nonzero"/><path fill="#ff751f" d="M 154.742188 251.132812 L 170.574219 220.179688 L 171.671875 220.742188 L 155.839844 251.695312 Z M 154.742188 251.132812 " fill-opacity="1" fill-rule="nonzero"/><path fill="#ff751f" d="M 150.449219 246.601562 L 167.945312 218.628906 L 168.992188 219.28125 L 151.492188 247.257812 Z M 150.449219 246.601562 " fill-opacity="1" fill-rule="nonzero"/><path fill="#ff751f" d="M 146.398438 242.199219 L 165.457031 216.855469 L 166.445312 217.597656 L 147.386719 242.941406 Z M 146.398438 242.199219 " fill-opacity="1" fill-rule="nonzero"/><path fill="#ff751f" d="M 142.304688 238.132812 L 163.136719 214.878906 L 164.054688 215.703125 L 143.222656 238.957031 Z M 142.304688 238.132812 " fill-opacity="1" fill-rule="nonzero"/><path fill="#ff751f" d="M 137.945312 234.378906 L 160.992188 212.710938 L 161.835938 213.609375 L 138.792969 235.277344 Z M 137.945312 234.378906 " fill-opacity="1" fill-rule="nonzero"/><path fill="#ff751f" d="M 133.304688 230.71875 L 159.035156 210.363281 L 159.796875 211.328125 L 134.070312 231.683594 Z M 133.304688 230.71875 " fill-opacity="1" fill-rule="nonzero"/><path fill="#ff751f" d="M 128.410156 226.917969 L 157.289062 207.863281 L 157.96875 208.894531 L 129.089844 227.949219 Z M 128.410156 226.917969 " fill-opacity="1" fill-rule="nonzero"/><path fill="#ff751f" d="M 123.585938 222.675781 L 155.769531 205.21875 L 156.359375 206.304688 L 124.171875 223.757812 Z M 123.585938 222.675781 " fill-opacity="1" fill-rule="nonzero"/><path fill="#ff751f" d="M 119.546875 217.664062 L 154.476562 202.453125 L 154.972656 203.582031 L 120.042969 218.792969 Z M 119.546875 217.664062 " fill-opacity="1" fill-rule="nonzero"/><path fill="#ff751f" d="M 116.839844 211.875 L 153.429688 199.585938 L 153.824219 200.753906 L 117.234375 213.042969 Z M 116.839844 211.875 " fill-opacity="1" fill-rule="nonzero"/><path fill="#ff751f" d="M 115.375 205.644531 L 152.636719 196.640625 L 152.925781 197.839844 L 115.664062 206.84375 Z M 115.375 205.644531 " fill-opacity="1" fill-rule="nonzero"/><g clip-path="url(#e36d9ef7dc)"><path fill="#ff751f" d="M 114.832031 199.292969 L 152.101562 193.632812 L 152.285156 194.855469 L 115.019531 200.511719 Z M 114.832031 199.292969 " fill-opacity="1" fill-rule="nonzero"/></g><path fill="#ff751f" d="M 115.101562 192.980469 L 151.824219 190.59375 L 151.90625 191.824219 L 115.179688 194.214844 Z M 115.101562 192.980469 " fill-opacity="1" fill-rule="nonzero"/><path fill="#ff751f" d="M 115.722656 188.0625 L 115.746094 186.828125 L 151.808594 187.542969 L 151.785156 188.773438 Z M 115.722656 188.0625 " fill-opacity="1" fill-rule="nonzero"/><path fill="#ff751f" d="M 116.730469 182.015625 L 116.859375 180.789062 L 152.050781 184.5 L 151.921875 185.726562 Z M 116.730469 182.015625 " fill-opacity="1" fill-rule="nonzero"/><path fill="#ff751f" d="M 118.339844 176.121094 L 118.574219 174.910156 L 152.554688 181.488281 L 152.320312 182.699219 Z M 118.339844 176.121094 " fill-opacity="1" fill-rule="nonzero"/><path fill="#ff751f" d="M 120.683594 170.511719 L 121.023438 169.324219 L 153.316406 178.535156 L 152.976562 179.722656 Z M 120.683594 170.511719 " fill-opacity="1" fill-rule="nonzero"/><path fill="#ff751f" d="M 123.890625 165.355469 L 124.332031 164.203125 L 154.332031 175.65625 L 153.890625 176.808594 Z M 123.890625 165.355469 " fill-opacity="1" fill-rule="nonzero"/><path fill="#ff751f" d="M 127.957031 160.855469 L 128.496094 159.746094 L 155.589844 172.875 L 155.050781 173.984375 Z M 127.957031 160.855469 " fill-opacity="1" fill-rule="nonzero"/><path fill="#ff751f" d="M 132.691406 157.109375 L 133.320312 156.050781 L 157.085938 170.214844 L 156.453125 171.273438 Z M 132.691406 157.109375 " fill-opacity="1" fill-rule="nonzero"/><path fill="#ff751f" d="M 137.695312 154.03125 L 138.414062 153.03125 L 158.804688 167.691406 L 158.082031 168.695312 Z M 137.695312 154.03125 " fill-opacity="1" fill-rule="nonzero"/><path fill="#ff751f" d="M 142.566406 151.363281 L 143.371094 150.429688 L 160.730469 165.328125 L 159.925781 166.261719 Z M 142.566406 151.363281 " fill-opacity="1" fill-rule="nonzero"/><path fill="#ff751f" d="M 147.0625 148.804688 L 147.941406 147.941406 L 162.851562 163.132812 L 161.972656 163.996094 Z M 147.0625 148.804688 " fill-opacity="1" fill-rule="nonzero"/><path fill="#ff751f" d="M 151.105469 146.054688 L 152.054688 145.269531 L 165.15625 161.128906 L 164.203125 161.917969 Z M 151.105469 146.054688 " fill-opacity="1" fill-rule="nonzero"/><path fill="#ff751f" d="M 154.667969 142.757812 L 155.683594 142.054688 L 167.621094 159.332031 L 166.609375 160.03125 Z M 154.667969 142.757812 " fill-opacity="1" fill-rule="nonzero"/><path fill="#ff751f" d="M 157.261719 137.523438 L 158.335938 136.910156 L 170.230469 157.75 L 169.160156 158.363281 Z M 157.261719 137.523438 " fill-opacity="1" fill-rule="nonzero"/><path fill="#ff751f" d="M 158.734375 128.496094 L 159.855469 127.980469 L 172.96875 156.402344 L 171.851562 156.917969 Z M 158.734375 128.496094 " fill-opacity="1" fill-rule="nonzero"/><path fill="#ff751f" d="M 161.699219 119.742188 L 162.859375 119.324219 L 175.8125 155.292969 L 174.652344 155.710938 Z M 161.699219 119.742188 " fill-opacity="1" fill-rule="nonzero"/><path fill="#ff751f" d="M 167.109375 115.339844 L 168.304688 115.023438 L 178.742188 154.4375 L 177.550781 154.753906 Z M 167.109375 115.339844 " fill-opacity="1" fill-rule="nonzero"/><path fill="#ff751f" d="M 173.4375 113.363281 L 174.652344 113.152344 L 181.734375 153.835938 L 180.519531 154.050781 Z M 173.4375 113.363281 " fill-opacity="1" fill-rule="nonzero"/><g clip-path="url(#98033e5e15)"><path fill="#ff751f" d="M 179.992188 112.605469 L 181.222656 112.5 L 184.765625 153.496094 L 183.539062 153.601562 Z M 179.992188 112.605469 " fill-opacity="1" fill-rule="nonzero"/></g><g clip-path="url(#9f5918e9a1)"><path fill="#ff751f" d="M 186.558594 112.535156 L 187.792969 112.535156 L 187.792969 153.417969 L 186.558594 153.417969 Z M 186.558594 112.535156 " fill-opacity="1" fill-rule="nonzero"/></g><path fill="#ff751f" d="M 189.636719 153.488281 L 193.015625 113.113281 L 194.246094 113.21875 L 190.863281 153.589844 Z M 189.636719 153.488281 " fill-opacity="1" fill-rule="nonzero"/><path fill="#ff751f" d="M 192.671875 153.820312 L 199.410156 114.457031 L 200.625 114.664062 L 193.886719 154.027344 Z M 192.671875 153.820312 " fill-opacity="1" fill-rule="nonzero"/><path fill="#ff751f" d="M 195.664062 154.414062 L 205.570312 116.609375 L 206.761719 116.921875 L 196.855469 154.726562 Z M 195.664062 154.414062 " fill-opacity="1" fill-rule="nonzero"/><path fill="#ff751f" d="M 198.589844 155.261719 L 211.347656 119.5625 L 212.511719 119.976562 L 199.75 155.675781 Z M 198.589844 155.261719 " fill-opacity="1" fill-rule="nonzero"/><path fill="#ff751f" d="M 201.441406 156.363281 L 216.636719 123.195312 L 217.757812 123.707031 L 202.5625 156.878906 Z M 201.441406 156.363281 " fill-opacity="1" fill-rule="nonzero"/><path fill="#ff751f" d="M 204.179688 157.707031 L 221.417969 127.320312 L 222.492188 127.929688 L 205.253906 158.316406 Z M 204.179688 157.707031 " fill-opacity="1" fill-rule="nonzero"/><path fill="#ff751f" d="M 206.800781 159.28125 L 225.746094 131.699219 L 226.761719 132.398438 L 207.816406 159.980469 Z M 206.800781 159.28125 " fill-opacity="1" fill-rule="nonzero"/><path fill="#ff751f" d="M 209.265625 161.070312 L 229.792969 136.101562 L 230.746094 136.882812 L 210.21875 161.851562 Z M 209.265625 161.070312 " fill-opacity="1" fill-rule="nonzero"/><path fill="#ff751f" d="M 211.578125 163.070312 L 233.863281 140.234375 L 234.746094 141.09375 L 212.460938 163.933594 Z M 211.578125 163.070312 " fill-opacity="1" fill-rule="nonzero"/><path fill="#ff751f" d="M 213.707031 165.257812 L 238.546875 143.824219 L 239.351562 144.757812 L 214.511719 166.191406 Z M 213.707031 165.257812 " fill-opacity="1" fill-rule="nonzero"/><path fill="#ff751f" d="M 215.636719 167.617188 L 243.777344 147.261719 L 244.5 148.261719 L 216.363281 168.617188 Z M 215.636719 167.617188 " fill-opacity="1" fill-rule="nonzero"/><path fill="#ff751f" d="M 217.363281 170.132812 L 249.195312 151.042969 L 249.832031 152.101562 L 217.996094 171.191406 Z M 217.363281 170.132812 " fill-opacity="1" fill-rule="nonzero"/><path fill="#ff751f" d="M 218.867188 172.796875 L 254.195312 155.550781 L 254.734375 156.660156 L 219.40625 173.902344 Z M 218.867188 172.796875 " fill-opacity="1" fill-rule="nonzero"/><path fill="#ff751f" d="M 220.132812 175.566406 L 257.949219 161.015625 L 258.390625 162.167969 L 220.574219 176.71875 Z M 220.132812 175.566406 " fill-opacity="1" fill-rule="nonzero"/><g clip-path="url(#26ba117656)"><path fill="#ff751f" d="M 221.15625 178.449219 L 259.820312 167.292969 L 260.160156 168.480469 L 221.496094 179.632812 Z M 221.15625 178.449219 " fill-opacity="1" fill-rule="nonzero"/></g><path fill="#ff751f" d="M 221.925781 181.398438 L 259.664062 173.984375 L 259.902344 175.195312 L 222.164062 182.609375 Z M 221.925781 181.398438 " fill-opacity="1" fill-rule="nonzero"/><path fill="#ff751f" d="M 222.433594 184.40625 L 257.175781 180.648438 L 257.308594 181.875 L 222.566406 185.632812 Z M 222.433594 184.40625 " fill-opacity="1" fill-rule="nonzero"/><path fill="#ff751f" d="M 222.6875 187.445312 L 253.273438 186.761719 L 253.300781 187.996094 L 222.714844 188.675781 Z M 222.6875 187.445312 " fill-opacity="1" fill-rule="nonzero"/><path fill="#ff751f" d="M 222.601562 191.730469 L 222.675781 190.5 L 249.445312 192.167969 L 249.367188 193.398438 Z M 222.601562 191.730469 " fill-opacity="1" fill-rule="nonzero"/><path fill="#ff751f" d="M 222.226562 194.757812 L 222.410156 193.539062 L 246.386719 197.117188 L 246.207031 198.335938 Z M 222.226562 194.757812 " fill-opacity="1" fill-rule="nonzero"/><path fill="#ff751f" d="M 221.59375 197.742188 L 221.882812 196.542969 L 244.238281 201.886719 L 243.953125 203.085938 Z M 221.59375 197.742188 " fill-opacity="1" fill-rule="nonzero"/><path fill="#ff751f" d="M 220.707031 200.664062 L 221.097656 199.496094 L 243.304688 206.886719 L 242.914062 208.054688 Z M 220.707031 200.664062 " fill-opacity="1" fill-rule="nonzero"/><path fill="#ff751f" d="M 219.570312 203.496094 L 220.058594 202.363281 L 243.015625 212.285156 L 242.527344 213.417969 Z M 219.570312 203.496094 " fill-opacity="1" fill-rule="nonzero"/><path fill="#ff751f" d="M 218.1875 206.21875 L 218.773438 205.132812 L 242.804688 218.085938 L 242.21875 219.171875 Z M 218.1875 206.21875 " fill-opacity="1" fill-rule="nonzero"/><path fill="#ff751f" d="M 216.582031 208.8125 L 217.257812 207.78125 L 242.335938 224.230469 L 241.660156 225.261719 Z M 216.582031 208.8125 " fill-opacity="1" fill-rule="nonzero"/><path fill="#ff751f" d="M 214.757812 211.257812 L 215.519531 210.289062 L 241.320312 230.574219 L 240.554688 231.542969 Z M 214.757812 211.257812 " fill-opacity="1" fill-rule="nonzero"/><path fill="#ff751f" d="M 212.726562 213.539062 L 213.570312 212.640625 L 239.464844 236.855469 L 238.621094 237.757812 Z M 212.726562 213.539062 " fill-opacity="1" fill-rule="nonzero"/><path fill="#ff751f" d="M 210.515625 215.640625 L 211.429688 214.8125 L 236.59375 242.746094 L 235.679688 243.574219 Z M 210.515625 215.640625 " fill-opacity="1" fill-rule="nonzero"/><path fill="#ff751f" d="M 208.128906 217.542969 L 209.113281 216.796875 L 232.664062 247.933594 L 231.679688 248.679688 Z M 208.128906 217.542969 " fill-opacity="1" fill-rule="nonzero"/><path fill="#ff751f" d="M 205.585938 219.234375 L 206.632812 218.578125 L 227.8125 252.234375 L 226.769531 252.890625 Z M 205.585938 219.234375 " fill-opacity="1" fill-rule="nonzero"/><path fill="#ff751f" d="M 202.914062 220.703125 L 204.007812 220.136719 L 222.277344 255.613281 L 221.179688 256.179688 Z M 202.914062 220.703125 " fill-opacity="1" fill-rule="nonzero"/><path fill="#ff751f" d="M 200.117188 221.929688 L 201.257812 221.464844 L 216.300781 258.152344 L 215.160156 258.617188 Z M 200.117188 221.929688 " fill-opacity="1" fill-rule="nonzero"/><path fill="#ff751f" d="M 197.226562 222.914062 L 198.40625 222.546875 L 210.082031 259.972656 L 208.902344 260.339844 Z M 197.226562 222.914062 " fill-opacity="1" fill-rule="nonzero"/><path fill="#ff751f" d="M 194.265625 223.644531 L 195.472656 223.382812 L 203.757812 261.214844 L 202.550781 261.480469 Z M 194.265625 223.644531 " fill-opacity="1" fill-rule="nonzero"/><g clip-path="url(#f66b777e42)"><path fill="#ff751f" d="M 191.25 224.113281 L 192.472656 223.953125 L 197.414062 261.992188 L 196.191406 262.152344 Z M 191.25 224.113281 " fill-opacity="1" fill-rule="nonzero"/></g><g clip-path="url(#dee2ed0893)"><path fill="#ff751f" d="M 188.207031 224.328125 L 189.4375 224.273438 L 191.101562 262.398438 L 189.871094 262.453125 Z M 188.207031 224.328125 " fill-opacity="1" fill-rule="nonzero"/></g><g clip-path="url(#4629ba0405)"><path fill="#ff751f" d="M 183.59375 262.445312 L 185.152344 224.277344 L 186.386719 224.328125 L 184.828125 262.496094 Z M 183.59375 262.445312 " fill-opacity="1" fill-rule="nonzero"/></g><g clip-path="url(#08b13776c8)"><path fill="#ff751f" d="M 187.425781 156.898438 C 169.8125 156.898438 155.5 171.210938 155.5 188.824219 C 155.5 206.441406 169.8125 220.753906 187.425781 220.753906 C 205.042969 220.753906 219.355469 206.441406 219.355469 188.824219 C 219.355469 171.210938 205.042969 156.898438 187.425781 156.898438 Z M 187.425781 159.675781 C 203.542969 159.675781 216.578125 172.710938 216.578125 188.824219 C 216.578125 204.941406 203.542969 217.976562 187.425781 217.976562 C 171.3125 217.976562 158.277344 204.941406 158.277344 188.824219 C 158.277344 172.710938 171.3125 159.675781 187.425781 159.675781 Z M 187.425781 159.675781 " fill-opacity="1" fill-rule="nonzero"/></g><g clip-path="url(#6fbd7a46f1)"><path fill="#ff751f" d="M 187.429688 164.777344 C 174.199219 164.777344 163.378906 175.601562 163.378906 188.828125 C 163.378906 202.058594 174.199219 212.882812 187.429688 212.882812 C 200.660156 212.882812 211.484375 202.058594 211.484375 188.828125 C 211.484375 175.601562 200.660156 164.777344 187.429688 164.777344 Z M 188.390625 199.894531 C 187.195312 199.894531 186.226562 198.921875 186.226562 197.726562 L 186.226562 182.816406 L 183.214844 183.773438 C 182.085938 184.132812 180.9375 183.292969 180.9375 182.109375 C 180.9375 181.378906 181.394531 180.726562 182.078125 180.46875 L 190.074219 177.523438 L 190.558594 177.523438 L 190.558594 197.726562 C 190.558594 198.921875 189.585938 199.894531 188.390625 199.894531 Z M 188.390625 199.894531 " fill-opacity="1" fill-rule="nonzero"/></g></svg>